[Header]
FileType HTR
DataType HTRS
FileVersion 1
NumSegments 64
NumFrames 4
DataFrameRate 24
EulerRotationOrder ZYX
CalibrationUnits mm
RotationUnits Degrees
GlobalAxisofGravity Y
BoneLengthAxis Y
ScaleFactor 1.0
[SegmentNames&Hierarchy]
Hips	GLOBAL
Spine	Hips
Spine1	Spine
Spine2	Spine1
Neck	Spine2
Head	Neck
LeftEye	Head
RightEye	Head
LeftShoulder	Spine2
LeftArm	LeftShoulder
LeftForeArm	LeftArm
LeftHand	LeftForeArm
LeftHandThumb1	LeftHand
LeftHandThumb2	LeftHandThumb1
LeftHandThumb3	LeftHandThumb2
LeftHandThumb4	LeftHandThumb3
LeftHandIndex1	LeftHand
LeftHandIndex2	LeftHandIndex1
LeftHandIndex3	LeftHandIndex2
LeftHandIndex4	LeftHandIndex3
LeftHandMiddle1	LeftHand
LeftHandMiddle2	LeftHandMiddle1
LeftHandMiddle3	LeftHandMiddle2
LeftHandMiddle4	LeftHandMiddle3
LeftHandRing1	LeftHand
LeftHandRing2	LeftHandRing1
LeftHandRing3	LeftHandRing2
LeftHandRing4	LeftHandRing3
LeftHandPinky1	LeftHand
LeftHandPinky2	LeftHandPinky1
LeftHandPinky3	LeftHandPinky2
LeftHandPinky4	LeftHandPinky3
RightShoulder	Spine2
RightArm	RightShoulder
RightForeArm	RightArm
RightHand	RightForeArm
RightHandPinky1	RightHand
RightHandPinky2	RightHandPinky1
RightHandPinky3	RightHandPinky2
RightHandPinky4	RightHandPinky3
RightHandRing1	RightHand
RightHandRing2	RightHandRing1
RightHandRing3	RightHandRing2
RightHandRing4	RightHandRing3
RightHandMiddle1	RightHand
RightHandMiddle2	RightHandMiddle1
RightHandMiddle3	RightHandMiddle2
RightHandMiddle4	RightHandMiddle3
RightHandIndex1	RightHand
RightHandIndex2	RightHandIndex1
RightHandIndex3	RightHandIndex2
RightHandIndex4	RightHandIndex3
RightHandThumb1	RightHand
RightHandThumb2	RightHandThumb1
RightHandThumb3	RightHandThumb2
RightHandThumb4	RightHandThumb3
LeftUpLeg	Hips
LeftLeg	LeftUpLeg
LeftFoot	LeftLeg
LeftToeBase	LeftFoot
RightUpLeg	Hips
RightLeg	RightUpLeg
RightFoot	RightLeg
RightToeBase	RightFoot
[BasePosition]
Hips	0	0	0	0	0	0	1
Spine	0	0	0	0	0	0	1
Spine1	0	0	0	0	0	0	1
Spine2	0	0	0	0	0	0	1
Neck	0	0	0	0	0	0	1
Head	0	0	0	0	0	0	1
LeftEye	0	0	0	0	0	0	1
RightEye	0	0	0	0	0	0	1
LeftShoulder	0	0	0	0	0	0	1
LeftArm	0	0	0	0	0	0	1
LeftForeArm	0	0	0	0	0	0	1
LeftHand	0	0	0	0	0	0	1
LeftHandThumb1	0	0	0	0	0	0	1
LeftHandThumb2	0	0	0	0	0	0	1
LeftHandThumb3	0	0	0	0	0	0	1
LeftHandThumb4	0	0	0	0	0	0	1
LeftHandIndex1	0	0	0	0	0	0	1
LeftHandIndex2	0	0	0	0	0	0	1
LeftHandIndex3	0	0	0	0	0	0	1
LeftHandIndex4	0	0	0	0	0	0	1
LeftHandMiddle1	0	0	0	0	0	0	1
LeftHandMiddle2	0	0	0	0	0	0	1
LeftHandMiddle3	0	0	0	0	0	0	1
LeftHandMiddle4	0	0	0	0	0	0	1
LeftHandRing1	0	0	0	0	0	0	1
LeftHandRing2	0	0	0	0	0	0	1
LeftHandRing3	0	0	0	0	0	0	1
LeftHandRing4	0	0	0	0	0	0	1
LeftHandPinky1	0	0	0	0	0	0	1
LeftHandPinky2	0	0	0	0	0	0	1
LeftHandPinky3	0	0	0	0	0	0	1
LeftHandPinky4	0	0	0	0	0	0	1
RightShoulder	0	0	0	0	0	0	1
RightArm	0	0	0	0	0	0	1
RightForeArm	0	0	0	0	0	0	1
RightHand	0	0	0	0	0	0	1
RightHandPinky1	0	0	0	0	0	0	1
RightHandPinky2	0	0	0	0	0	0	1
RightHandPinky3	0	0	0	0	0	0	1
RightHandPinky4	0	0	0	0	0	0	1
RightHandRing1	0	0	0	0	0	0	1
RightHandRing2	0	0	0	0	0	0	1
RightHandRing3	0	0	0	0	0	0	1
RightHandRing4	0	0	0	0	0	0	1
RightHandMiddle1	0	0	0	0	0	0	1
RightHandMiddle2	0	0	0	0	0	0	1
RightHandMiddle3	0	0	0	0	0	0	1
RightHandMiddle4	0	0	0	0	0	0	1
RightHandIndex1	0	0	0	0	0	0	1
RightHandIndex2	0	0	0	0	0	0	1
RightHandIndex3	0	0	0	0	0	0	1
RightHandIndex4	0	0	0	0	0	0	1
RightHandThumb1	0	0	0	0	0	0	1
RightHandThumb2	0	0	0	0	0	0	1
RightHandThumb3	0	0	0	0	0	0	1
RightHandThumb4	0	0	0	0	0	0	1
LeftUpLeg	0	0	0	0	0	0	1
LeftLeg	0	0	0	0	0	0	1
LeftFoot	0	0	0	0	0	0	1
LeftToeBase	0	0	0	0	0	0	1
RightUpLeg	0	0	0	0	0	0	1
RightLeg	0	0	0	0	0	0	1
RightFoot	0	0	0	0	0	0	1
RightToeBase	0	0	0	0	0	0	1
[Hips]
38	-197.9002533	1010.960083	-6.844639778	8.743040085	8.525338173	-2.56776762	1.0
39	-171.8357849	1037.171631	-12.15353966	10.98627472	6.506113529	0.04277102277	1.0
40	-139.0933838	1047.563599	-7.388746738	10.79266644	5.217695713	1.408875465	1.0
41	-99.89007568	1037.848145	10.9904747	8.73377037	4.126346111	1.088129163	1.0
[Spine]
38	0	101.8159943	1.315000057	16.3701973	-3.480695248	-1.255619526	1.0
39	0	101.8159943	1.315000057	14.32106495	-2.585142136	-1.859236002	1.0
40	0	101.8159943	1.315000057	12.5711956	-2.069814682	-0.2757614553	1.0
41	0	101.8159943	1.315000057	10.91236401	-2.075512648	2.732408047	1.0
[Spine1]
38	0	100.8349991	-10.00800037	5.096612453	-0.7563276887	-2.244865417	1.0
39	0	100.8349991	-10.00800037	4.197052956	-0.6044172645	-2.021349907	1.0
40	0	100.8349991	-10.00800037	3.100736618	-0.4249076247	-0.772559464	1.0
41	0	100.8349991	-10.00800037	2.237015963	-0.2975735366	0.8009845614	1.0
[Spine2]
38	0	91	-13.73399925	5.073388577	-0.9666112661	-2.254310369	1.0
39	0	91	-13.73399925	4.180173874	-0.76809901	-2.022158384	1.0
40	0	91	-13.73399925	3.093071699	-0.4844022095	-0.7730816603	1.0
41	0	91	-13.73399925	2.240602016	-0.2751282156	0.7945062518	1.0
[Neck]
38	0	166.7169952	-25.16200066	-1.531617403	1.480776787	4.207203388	1.0
39	0	166.7169952	-25.16200066	-3.132035255	1.110763788	6.158122063	1.0
40	0	166.7169952	-25.16200066	-2.555921316	0.7878228426	3.515979528	1.0
41	0	166.7169952	-25.16200066	0.4347653091	1.105003595	-1.345334768	1.0
[Head]
38	0	96.17900085	16.84999847	-41.39805603	5.703531265	2.335150957	1.0
39	0	96.17900085	16.84999847	-36.63751602	5.287534714	-1.503414631	1.0
40	0	96.17900085	16.84999847	-30.90364647	4.539916515	-4.107659817	1.0
41	0	96.17900085	16.84999847	-26.717659	4.501116753	-5.166752815	1.0
[LeftEye]
38	30.6760006	64.09500122	92.83599854	0	0	0	1.0
39	30.6760006	64.09500122	92.83599854	0	0	0	1.0
40	30.6760006	64.09500122	92.83599854	0	0	0	1.0
41	30.6760006	64.09500122	92.83599854	0	0	0	1.0
[RightEye]
38	-30.6760006	64.09500122	92.83499908	0	0	0	1.0
39	-30.6760006	64.09500122	92.83499908	0	0	0	1.0
40	-30.6760006	64.09500122	92.83499908	0	0	0	1.0
41	-30.6760006	64.09500122	92.83499908	0	0	0	1.0
[LeftShoulder]
38	45.70400238	109.4599991	-26.28000069	1.689458966	-33.77767563	2.385316133	1.0
39	45.70400238	109.4599991	-26.28000069	2.401157379	-33.3237381	0.006845684722	1.0
40	45.70400238	109.4599991	-26.28000069	3.466717958	-31.78861618	-3.630084276	1.0
41	45.70400238	109.4599991	-26.28000069	4.396222591	-29.32198715	-7.325205803	1.0
[LeftArm]
38	105.923996	-5.24600029	-22.32099915	2.821166992	-33.8395462	30.9413681	1.0
39	105.923996	-5.24600029	-22.32099915	-2.062868118	-35.24776459	22.32749367	1.0
40	105.923996	-5.24600029	-22.32099915	-5.801005363	-38.68832016	-3.61828351	1.0
41	105.923996	-5.24600029	-22.32099915	-7.125355244	-39.68081284	-39.2281723	1.0
[LeftForeArm]
38	278.414978	-0.0009999999311	0	3.010096952e-05	-77.05354309	-0.0002200549789	1.0
39	278.414978	-0.0009999999311	0	3.064615157e-05	-76.97866058	-0.0002583972819	1.0
40	278.414978	-0.0009999999311	0	1.040806001e-05	-76.24239349	-0.000236208667	1.0
41	278.414978	-0.0009999999311	0	-6.022499292e-06	-75.60852051	-0.0001983454276	1.0
[LeftHand]
38	283.2879944	0	0	11.56053734	-1.289018393	-6.163967609	1.0
39	283.2879944	0	0	24.10605621	-14.61086464	3.024754047	1.0
40	283.2879944	0	0	45.75272751	-31.23873329	9.686508179	1.0
41	283.2879944	0	0	62.42414474	-42.41972733	11.3567915	1.0
[LeftHandThumb1]
38	24.6609993	-15.75	26.8239994	-1.441469789	-8.319266319	8.653971672	1.0
39	24.6609993	-15.75	26.8239994	-1.441466212	-8.319266319	8.653962135	1.0
40	24.6609993	-15.75	26.8239994	-1.441470385	-8.319264412	8.653966904	1.0
41	24.6609993	-15.75	26.8239994	-1.441473961	-8.319259644	8.653960228	1.0
[LeftHandThumb2]
38	32.29800034	-18.64699936	18.64699936	6.693877697	35.79314423	-1.551243067	1.0
39	32.29800034	-18.64699936	18.64699936	6.69387722	35.79315186	-1.551233172	1.0
40	32.29800034	-18.64699936	18.64699936	6.693876266	35.79314804	-1.55123353	1.0
41	32.29800034	-18.64699936	18.64699936	6.693868637	35.79314041	-1.55123353	1.0
[LeftHandThumb3]
38	26.52600098	-15.31499958	15.31499958	-0.8579778671	28.98578072	24.3999424	1.0
39	26.52600098	-15.31499958	15.31499958	-0.8579842448	28.98577881	24.39995193	1.0
40	26.52600098	-15.31499958	15.31499958	-0.8579722047	28.98578644	24.39993858	1.0
41	26.52600098	-15.31499958	15.31499958	-0.85799402	28.98578644	24.39994049	1.0
[LeftHandThumb4]
38	19.54599953	-11.28499985	11.28499985	0	0	0	1.0
39	19.54599953	-11.28499985	11.28499985	0	0	0	1.0
40	19.54599953	-11.28499985	11.28499985	0	0	0	1.0
41	19.54599953	-11.28499985	11.28499985	0	0	0	1.0
[LeftHandIndex1]
38	91.09299469	-5.170999527	22.60099792	2.074712992	6.37452364	-51.86821747	1.0
39	91.09299469	-5.170999527	22.60099792	2.074713707	6.37452364	-51.86823273	1.0
40	91.09299469	-5.170999527	22.60099792	2.074712992	6.374525547	-51.86821747	1.0
41	91.09299469	-5.170999527	22.60099792	2.074717045	6.37451458	-51.8682251	1.0
[LeftHandIndex2]
38	36.76399994	0	0	-5.084242821	5.778055668	-82.67963409	1.0
39	36.76399994	0	0	-5.084238052	5.778063774	-82.67967224	1.0
40	36.76399994	0	0	-5.084243298	5.778059959	-82.67965698	1.0
41	36.76399994	0	0	-5.084238052	5.778060436	-82.67964172	1.0
[LeftHandIndex3]
38	28.83100128	0	0	-6.449677467	5.791759968	-96.16447449	1.0
39	28.83100128	0	0	-6.449679852	5.791763306	-96.164505	1.0
40	28.83100128	0	0	-6.449671745	5.791774273	-96.16449738	1.0
41	28.83100128	0	0	-6.449677944	5.791757584	-96.16448212	1.0
[LeftHandIndex4]
38	23.92700005	0	0	0	0	0	1.0
39	23.92700005	0	0	0	0	0	1.0
40	23.92700005	0	0	0	0	0	1.0
41	23.92700005	0	0	0	0	0	1.0
[LeftHandMiddle1]
38	95.33399963	0	0	-6.494758606	5.273266792	-74.30393982	1.0
39	95.33399963	0	0	-6.494761467	5.273264408	-74.30394745	1.0
40	95.33399963	0	0	-6.494760036	5.273258209	-74.30392456	1.0
41	95.33399963	0	0	-6.494765759	5.273272514	-74.30393219	1.0
[LeftHandMiddle2]
38	36.98199844	0	0	-7.58349514	5.554391384	-107.5965958	1.0
39	36.98199844	0	0	-7.583498478	5.554386616	-107.5965881	1.0
40	36.98199844	0	0	-7.583500385	5.554389	-107.5965958	1.0
41	36.98199844	0	0	-7.583487988	5.554408073	-107.5966187	1.0
[LeftHandMiddle3]
38	29.50900078	0	0	-1.617075562	4.031611919	-43.69761658	1.0
39	29.50900078	0	0	-1.617076874	4.031617165	-43.69761658	1.0
40	29.50900078	0	0	-1.617084146	4.031625748	-43.69760513	1.0
41	29.50900078	0	0	-1.617067575	4.031608582	-43.69761658	1.0
[LeftHandMiddle4]
38	28.3390007	0	0	0	0	0	1.0
39	28.3390007	0	0	0	0	0	1.0
40	28.3390007	0	0	0	0	0	1.0
41	28.3390007	0	0	0	0	0	1.0
[LeftHandRing1]
38	91.04499817	-0.4390000105	-18.65100098	-8.449708939	1.972102165	-92.66125488	1.0
39	91.04499817	-0.4390000105	-18.65100098	-8.449708939	1.972100854	-92.66125488	1.0
40	91.04499817	-0.4390000105	-18.65100098	-8.449706078	1.972098827	-92.66124725	1.0
41	91.04499817	-0.4390000105	-18.65100098	-8.449705124	1.972107649	-92.66124725	1.0
[LeftHandRing2]
38	31.54000092	0	0	-5.443838596	5.812763691	-86.23973846	1.0
39	31.54000092	0	0	-5.443836212	5.812765598	-86.23973083	1.0
40	31.54000092	0	0	-5.443829536	5.812758923	-86.23971558	1.0
41	31.54000092	0	0	-5.443831921	5.812758923	-86.23973846	1.0
[LeftHandRing3]
38	29.37700081	0	0	-1.453045964	3.853060484	-41.31214142	1.0
39	29.37700081	0	0	-1.453041434	3.85305953	-41.31212997	1.0
40	29.37700081	0	0	-1.453048825	3.853060961	-41.31212616	1.0
41	29.37700081	0	0	-1.45304215	3.853061676	-41.31212234	1.0
[LeftHandRing4]
38	26.47500038	0	0	0	0	0	1.0
39	26.47500038	0	0	0	0	0	1.0
40	26.47500038	0	0	0	0	0	1.0
41	26.47500038	0	0	0	0	0	1.0
[LeftHandPinky1]
38	80.77799988	-4.887000084	-38.06099701	-16.68238449	2.778098583	-98.34423828	1.0
39	80.77799988	-4.887000084	-38.06099701	-16.68238258	2.77809763	-98.34423828	1.0
40	80.77799988	-4.887000084	-38.06099701	-16.6823864	2.778094292	-98.34423065	1.0
41	80.77799988	-4.887000084	-38.06099701	-16.68238068	2.77807951	-98.34422302	1.0
[LeftHandPinky2]
38	36	0	0	-2.200020075	4.56277895	-51.46560669	1.0
39	36	0	0	-2.200030088	4.562780857	-51.46561432	1.0
40	36	0	0	-2.200028896	4.562779427	-51.46560669	1.0
41	36	0	0	-2.200042248	4.562784672	-51.46561813	1.0
[LeftHandPinky3]
38	21.14200211	0	0	-2.346135855	4.67503643	-53.27989197	1.0
39	21.14200211	0	0	-2.34613657	4.675043583	-53.27988434	1.0
40	21.14200211	0	0	-2.346133709	4.675050259	-53.27988434	1.0
41	21.14200211	0	0	-2.346136808	4.675037861	-53.27987671	1.0
[LeftHandPinky4]
38	19.75699997	0	0	0	0	0	1.0
39	19.75699997	0	0	0	0	0	1.0
40	19.75699997	0	0	0	0	0	1.0
41	19.75699997	0	0	0	0	0	1.0
[RightShoulder]
38	-45.70000076	109.4620056	-26.28000069	1.925611734	28.97126579	-1.661620498	1.0
39	-45.70000076	109.4620056	-26.28000069	2.741323948	28.13492012	1.107278466	1.0
40	-45.70000076	109.4620056	-26.28000069	3.904018402	26.36960411	5.408113956	1.0
41	-45.70000076	109.4620056	-26.28000069	4.822348595	24.14202309	9.325196266	1.0
[RightArm]
38	-105.9280014	-5.248000145	-22.32099915	-22.61980247	52.72788239	-11.14023304	1.0
39	-105.9280014	-5.248000145	-22.32099915	-20.45319176	53.12987137	1.745782733	1.0
40	-105.9280014	-5.248000145	-22.32099915	-10.78570366	58.60406876	22.13611221	1.0
41	-105.9280014	-5.248000145	-22.32099915	7.996133804	61.57717133	48.94013214	1.0
[RightForeArm]
38	-278.414978	0	0	-5.772577424e-06	71.05651093	-7.832869414e-06	1.0
39	-278.414978	0	0	-2.541388312e-05	77.88404083	-2.693306669e-05	1.0
40	-278.414978	0	0	1.487890586e-05	77.18677521	-1.149024865e-05	1.0
41	-278.414978	0	0	3.973372077e-05	71.31931305	2.665464672e-05	1.0
[RightHand]
38	-283.2879944	0	0.0009999999311	18.22066879	10.44875908	-15.38016701	1.0
39	-283.2879944	0	0.0009999999311	11.85626698	20.28165627	-36.60055161	1.0
40	-283.2879944	0	0.0009999999311	4.696833611	27.73423576	-49.48167801	1.0
41	-283.2879944	0	0.0009999999311	4.321966171	34.06237793	-45.53317261	1.0
[RightHandPinky1]
38	-80.76699829	-4.885000229	-38.06000137	-15.18223667	-1.629494786	97.58633423	1.0
39	-80.76699829	-4.885000229	-38.06000137	-15.18223953	-1.629500389	97.58634186	1.0
40	-80.76699829	-4.885000229	-38.06000137	-15.18223858	-1.629495502	97.5863266	1.0
41	-80.76699829	-4.885000229	-38.06000137	-15.18224335	-1.629497766	97.5863266	1.0
[RightHandPinky2]
38	-36	0	0.0009999999311	-1.749820828	-3.62691164	51.5187912	1.0
39	-36	0	0.0009999999311	-1.749812484	-3.626894474	51.51876831	1.0
40	-36	0	0.0009999999311	-1.749814749	-3.626903296	51.51878738	1.0
41	-36	0	0.0009999999311	-1.749819279	-3.626897573	51.5187912	1.0
[RightHandPinky3]
38	-21.14200211	0	0	-1.867226958	-3.717069626	53.33227158	1.0
39	-21.14200211	0	0	-1.867236018	-3.717085123	53.33226395	1.0
40	-21.14200211	0	0	-1.867233992	-3.717079401	53.3322525	1.0
41	-21.14200211	0	0	-1.867228866	-3.717074633	53.33224869	1.0
[RightHandPinky4]
38	-19.75699997	0	0	0	0	0	1.0
39	-19.75699997	0	0	0	0	0	1.0
40	-19.75699997	0	0	0	0	0	1.0
41	-19.75699997	0	0	0	0	0	1.0
[RightHandRing1]
38	-91.03599548	-0.4390000105	-18.65100098	-7.065039635	-0.7974020243	91.91007233	1.0
39	-91.03599548	-0.4390000105	-18.65100098	-7.065035343	-0.7974071503	91.91007996	1.0
40	-91.03599548	-0.4390000105	-18.65100098	-7.065034389	-0.7974019647	91.91005707	1.0
41	-91.03599548	-0.4390000105	-18.65100098	-7.065038681	-0.7974049449	91.91007233	1.0
[RightHandRing2]
38	-31.54000092	0	0	-4.327741146	-4.620641708	86.24686432	1.0
39	-31.54000092	0	0	-4.327746391	-4.620632172	86.24688721	1.0
40	-31.54000092	0	0	-4.327742577	-4.620628834	86.24687958	1.0
41	-31.54000092	0	0	-4.327742577	-4.620629787	86.24688721	1.0
[RightHandRing3]
38	-29.37700081	0	0	-1.156967163	-3.063929081	41.3663559	1.0
39	-29.37700081	0	0	-1.156970024	-3.063933372	41.36633301	1.0
40	-29.37700081	0	0	-1.156969547	-3.063934088	41.36635208	1.0
41	-29.37700081	0	0	-1.156971931	-3.063934088	41.36633682	1.0
[RightHandRing4]
38	-26.47500038	0	0	0	0	0	1.0
39	-26.47500038	0	0	0	0	0	1.0
40	-26.47500038	0	0	0	0	0	1.0
41	-26.47500038	0	0	0	0	0	1.0
[RightHandMiddle1]
38	-95.32500458	0	0	-5.490190029	-4.098496437	73.57287598	1.0
39	-95.32500458	0	0	-5.490192413	-4.098500252	73.57289886	1.0
40	-95.32500458	0	0	-5.490187168	-4.098497868	73.57288361	1.0
41	-95.32500458	0	0	-5.49020052	-4.098497868	73.57289124	1.0
[RightHandMiddle2]
38	-36.98199844	0	0	-6.026580811	-4.415504932	107.5651169	1.0
39	-36.98199844	0	0	-6.026577473	-4.41549921	107.5651093	1.0
40	-36.98199844	0	0	-6.026570797	-4.415498257	107.5651093	1.0
41	-36.98199844	0	0	-6.026580334	-4.415501118	107.5651321	1.0
[RightHandMiddle3]
38	-29.50900078	0	0	-1.287466407	-3.20785141	43.75226974	1.0
39	-29.50900078	0	0	-1.287467241	-3.207858086	43.7522583	1.0
40	-29.50900078	0	0	-1.287469864	-3.207851171	43.75225449	1.0
41	-29.50900078	0	0	-1.287469268	-3.207852364	43.75226212	1.0
[RightHandMiddle4]
38	-28.3390007	0	0.0009999999311	0	0	0	1.0
39	-28.3390007	0	0.0009999999311	0	0	0	1.0
40	-28.3390007	0	0.0009999999311	0	0	0	1.0
41	-28.3390007	0	0.0009999999311	0	0	0	1.0
[RightHandIndex1]
38	-91.08300018	-5.167999744	22.60099792	2.643070698	-5.360724926	51.18568802	1.0
39	-91.08300018	-5.167999744	22.60099792	2.643069983	-5.360728741	51.1856842	1.0
40	-91.08300018	-5.167999744	22.60099792	2.643065214	-5.360717297	51.18567657	1.0
41	-91.08300018	-5.167999744	22.60099792	2.643074274	-5.360723972	51.1856842	1.0
[RightHandIndex2]
38	-36.76399994	0	0	-4.04225111	-4.593089581	82.69343567	1.0
39	-36.76399994	0	0	-4.042241096	-4.593080521	82.69342041	1.0
40	-36.76399994	0	0	-4.042242527	-4.593092918	82.69345093	1.0
41	-36.76399994	0	0	-4.042256832	-4.593073845	82.69342041	1.0
[RightHandIndex3]
38	-28.83100128	0	0	-5.126289845	-4.603966236	96.15283966	1.0
39	-28.83100128	0	0	-5.126291752	-4.603957653	96.15283966	1.0
40	-28.83100128	0	0	-5.126277924	-4.603953838	96.15283966	1.0
41	-28.83100128	0	0	-5.126286507	-4.603965282	96.15281677	1.0
[RightHandIndex4]
38	-23.92700005	0	0	0	0	0	1.0
39	-23.92700005	0	0	0	0	0	1.0
40	-23.92700005	0	0	0	0	0	1.0
41	-23.92700005	0	0	0	0	0	1.0
[RightHandThumb1]
38	-24.64799881	-15.72700024	26.82600021	-2.388242483	10.16858768	-8.287027359	1.0
39	-24.64799881	-15.72700024	26.82600021	-2.388234854	10.16858292	-8.287029266	1.0
40	-24.64799881	-15.72700024	26.82600021	-2.388239145	10.16858578	-8.287031174	1.0
41	-24.64799881	-15.72700024	26.82600021	-2.388246536	10.16858768	-8.28703022	1.0
[RightHandThumb2]
38	-32.29800034	-18.64699936	18.64699936	7.070496559	-37.46694946	0.6013838053	1.0
39	-32.29800034	-18.64699936	18.64699936	7.070504665	-37.46694946	0.6013878584	1.0
40	-32.29800034	-18.64699936	18.64699936	7.070503235	-37.46693802	0.6013672352	1.0
41	-32.29800034	-18.64699936	18.64699936	7.070498943	-37.46693039	0.6013858318	1.0
[RightHandThumb3]
38	-26.52600098	-15.31399918	15.31399918	3.291629553	-34.41186142	-26.10048866	1.0
39	-26.52600098	-15.31399918	15.31399918	3.291626215	-34.41185379	-26.10049057	1.0
40	-26.52600098	-15.31399918	15.31399918	3.291613817	-34.41185379	-26.1004715	1.0
41	-26.52600098	-15.31399918	15.31399918	3.291652918	-34.41184998	-26.10050201	1.0
[RightHandThumb4]
38	-19.54599953	-11.28499985	11.28499985	0	0	0	1.0
39	-19.54599953	-11.28499985	11.28499985	0	0	0	1.0
40	-19.54599953	-11.28499985	11.28499985	0	0	0	1.0
41	-19.54599953	-11.28499985	11.28499985	0	0	0	1.0
[LeftUpLeg]
38	82.07800293	-67.51699829	-15.99599934	-106.3873596	40.34251404	-16.5922699	1.0
39	82.07800293	-67.51699829	-15.99599934	-95.38428497	41.31479263	-13.89613342	1.0
40	82.07800293	-67.51699829	-15.99599934	-71.59057617	36.97248077	-3.049716949	1.0
41	82.07800293	-67.51699829	-15.99599934	-46.24945068	25.45917892	7.195176125	1.0
[LeftLeg]
38	0	-443.7049866	2.845999956	105.4439621	-3.208044291	8.711466789	1.0
39	0	-443.7049866	2.845999956	92.42425537	-0.9379104972	8.978415489	1.0
40	0	-443.7049866	2.845999956	71.70452881	1.982583284	7.324456692	1.0
41	0	-443.7049866	2.845999956	47.86193848	4.527959824	5.766325951	1.0
[LeftFoot]
38	0	-444.2789917	-29.8219986	-3.177004576	5.4176898	0.6108583808	1.0
39	0	-444.2789917	-29.8219986	11.90218925	0.8626174927	-3.636282444	1.0
40	0	-444.2789917	-29.8219986	26.18398666	-0.2571223676	-6.447594166	1.0
41	0	-444.2789917	-29.8219986	26.80514145	2.90401721	-4.645823479	1.0
[LeftToeBase]
38	0	-87.28699493	107.1060028	2.176977634	4.228599209e-06	-7.040146556e-06	1.0
39	0	-87.28699493	107.1060028	2.196182489	-2.149025704e-06	1.0798218e-06	1.0
40	0	-87.28699493	107.1060028	1.046404839	-8.308174984e-06	7.922692021e-06	1.0
41	0	-87.28699493	107.1060028	-1.840260744	1.982762478e-05	5.207878985e-06	1.0
[RightUpLeg]
38	-82.07800293	-67.51699829	-15.99599934	-25.07841682	-13.86444283	-9.813175201	1.0
39	-82.07800293	-67.51699829	-15.99599934	-29.89460373	-12.67679405	-10.90565395	1.0
40	-82.07800293	-67.51699829	-15.99599934	-36.30690002	-12.16286564	-9.89596653	1.0
41	-82.07800293	-67.51699829	-15.99599934	-38.32832718	-14.03446007	-6.002965927	1.0
[RightLeg]
38	0	-443.7049866	2.861999989	27.97074318	-6.887983322	-4.031229973	1.0
39	0	-443.7049866	2.861999989	27.6980381	-7.742822647	-4.702792168	1.0
40	0	-443.7049866	2.861999989	38.70272064	-4.101287842	-3.761000633	1.0
41	0	-443.7049866	2.861999989	46.3836441	2.302112579	2.477373123	1.0
[RightFoot]
38	0	-444.2770081	-29.83799934	12.48428059	-3.867311001	8.645199776	1.0
39	0	-444.2770081	-29.83799934	24.70738983	-7.935952187	7.24883604	1.0
40	0	-444.2770081	-29.83799934	16.98202324	-7.37723732	13.77738762	1.0
41	0	-444.2770081	-29.83799934	8.907552719	-3.907903671	24.507658	1.0
[RightToeBase]
38	0	-87.28699493	107.1060028	-21.66835594	4.136149528e-06	-1.076644025e-06	1.0
39	0	-87.28699493	107.1060028	-17.75217819	1.16733551	4.303182602	1.0
40	0	-87.28699493	107.1060028	-4.240273952	9.800450243e-06	2.346928568e-06	1.0
41	0	-87.28699493	107.1060028	-0.8883616924	3.216994855e-06	-5.207298273e-06	1.0
[EndOfFile]
